<svg width="25" height="24" viewBox="0 0 25 24" fill="none" xmlns="http://www.w3.org/2000/svg">
<mask id="mask0_2036_2861" style="mask-type:alpha" maskUnits="userSpaceOnUse" x="0" y="0" width="25" height="24">
<rect x="0.5" width="24" height="24" fill="#D9D9D9"/>
</mask>
<g mask="url(#mask0_2036_2861)">
<path d="M12.5385 17.1345C12.7603 17.1345 12.9472 17.0586 13.099 16.9068C13.251 16.7548 13.327 16.5679 13.327 16.3463C13.327 16.1244 13.251 15.9375 13.099 15.7855C12.9472 15.6337 12.7603 15.5577 12.5385 15.5577C12.3167 15.5577 12.1298 15.6337 11.978 15.7855C11.826 15.9375 11.75 16.1244 11.75 16.3463C11.75 16.5679 11.826 16.7548 11.978 16.9068C12.1298 17.0586 12.3167 17.1345 12.5385 17.1345ZM12.023 13.823H12.9885C13.0142 13.3768 13.0968 13.0218 13.2365 12.7578C13.3763 12.4936 13.6437 12.1641 14.0385 11.7692C14.5192 11.2884 14.8676 10.8714 15.0837 10.5182C15.2997 10.1651 15.4078 9.76417 15.4078 9.3155C15.4078 8.53467 15.1398 7.9055 14.6038 7.428C14.0679 6.95033 13.4135 6.7115 12.6405 6.7115C11.9288 6.7115 11.3163 6.90125 10.803 7.28075C10.2895 7.66025 9.91417 8.11542 9.677 8.64625L10.5963 9.027C10.7641 8.62817 11.0038 8.29767 11.3155 8.0355C11.627 7.77333 12.0481 7.64225 12.5787 7.64225C13.2083 7.64225 13.6762 7.81442 13.9827 8.15875C14.2891 8.50292 14.4423 8.89425 14.4423 9.33275C14.4423 9.66725 14.3506 9.97367 14.1673 10.252C13.9839 10.5302 13.7269 10.8224 13.3962 11.1288C12.8591 11.6249 12.4959 12.0714 12.3067 12.4683C12.1176 12.8651 12.023 13.3167 12.023 13.823ZM6.1155 20C5.65517 20 5.27083 19.8458 4.9625 19.5375C4.65417 19.2292 4.5 18.8448 4.5 18.3845V5.6155C4.5 5.15517 4.65417 4.77083 4.9625 4.4625C5.27083 4.15417 5.65517 4 6.1155 4H18.8845C19.3448 4 19.7292 4.15417 20.0375 4.4625C20.3458 4.77083 20.5 5.15517 20.5 5.6155V18.3845C20.5 18.8448 20.3458 19.2292 20.0375 19.5375C19.7292 19.8458 19.3448 20 18.8845 20H6.1155ZM6.1155 19H18.8845C19.0385 19 19.1796 18.9359 19.3077 18.8077C19.4359 18.6796 19.5 18.5385 19.5 18.3845V5.6155C19.5 5.4615 19.4359 5.32042 19.3077 5.19225C19.1796 5.06408 19.0385 5 18.8845 5H6.1155C5.9615 5 5.82042 5.06408 5.69225 5.19225C5.56408 5.32042 5.5 5.4615 5.5 5.6155V18.3845C5.5 18.5385 5.56408 18.6796 5.69225 18.8077C5.82042 18.9359 5.9615 19 6.1155 19Z" fill="#111827"/>
</g>
</svg>
