<svg width="25" height="24" viewBox="0 0 25 24" fill="none" xmlns="http://www.w3.org/2000/svg">
<mask id="mask0_2036_2868" style="mask-type:alpha" maskUnits="userSpaceOnUse" x="0" y="0" width="25" height="24">
<rect x="0.5" width="24" height="24" fill="#D9D9D9"/>
</mask>
<g mask="url(#mask0_2036_2868)">
<path d="M12.4963 16.2115C12.7179 16.2115 12.9047 16.1356 13.0568 15.9838C13.2086 15.8317 13.2845 15.6448 13.2845 15.423C13.2845 15.2013 13.2086 15.0145 13.0568 14.8625C12.9047 14.7105 12.7179 14.6345 12.4963 14.6345C12.2744 14.6345 12.0875 14.7105 11.9355 14.8625C11.7837 15.0145 11.7077 15.2013 11.7077 15.423C11.7077 15.6448 11.7837 15.8317 11.9355 15.9838C12.0875 16.1356 12.2744 16.2115 12.4963 16.2115ZM11.9808 12.9H12.9462C12.9591 12.6808 12.9812 12.4904 13.0125 12.3288C13.0438 12.1673 13.1012 12.0077 13.1845 11.85C13.2678 11.6923 13.3753 11.5343 13.5068 11.376C13.6381 11.2177 13.8012 11.0411 13.9962 10.8463C14.4769 10.3654 14.8253 9.94842 15.0413 9.59525C15.2574 9.24208 15.3655 8.84108 15.3655 8.39225C15.3655 7.61158 15.0975 6.98242 14.5615 6.50475C14.0257 6.02725 13.3712 5.7885 12.598 5.7885C11.8865 5.7885 11.274 5.97825 10.7605 6.35775C10.2472 6.73725 9.87183 7.19233 9.6345 7.723L10.5538 8.10375C10.7218 7.70508 10.9615 7.37467 11.273 7.1125C11.5847 6.85033 12.0058 6.71925 12.5365 6.71925C13.166 6.71925 13.634 6.89133 13.9405 7.2355C14.2468 7.57983 14.4 7.97117 14.4 8.4095C14.4 8.74417 14.3083 9.05058 14.125 9.32875C13.9417 9.60708 13.6846 9.89942 13.3538 10.2057C13.1089 10.4391 12.899 10.6618 12.724 10.874C12.549 11.0862 12.4032 11.298 12.2865 11.5095C12.1698 11.7212 12.0898 11.9388 12.0463 12.1625C12.0026 12.3862 11.9808 12.632 11.9808 12.9ZM12.5 21.577L9.923 19H6.1155C5.65517 19 5.27083 18.8458 4.9625 18.5375C4.65417 18.2292 4.5 17.8448 4.5 17.3845V4.6155C4.5 4.15517 4.65417 3.77083 4.9625 3.4625C5.27083 3.15417 5.65517 3 6.1155 3H18.8845C19.3448 3 19.7292 3.15417 20.0375 3.4625C20.3458 3.77083 20.5 4.15517 20.5 4.6155V17.3845C20.5 17.8448 20.3458 18.2292 20.0375 18.5375C19.7292 18.8458 19.3448 19 18.8845 19H15.077L12.5 21.577ZM6.1155 18H10.3385L12.5 20.1615L14.6615 18H18.8845C19.064 18 19.2115 17.9423 19.327 17.827C19.4423 17.7115 19.5 17.564 19.5 17.3845V4.6155C19.5 4.436 19.4423 4.2885 19.327 4.173C19.2115 4.05767 19.064 4 18.8845 4H6.1155C5.936 4 5.7885 4.05767 5.673 4.173C5.55767 4.2885 5.5 4.436 5.5 4.6155V17.3845C5.5 17.564 5.55767 17.7115 5.673 17.827C5.7885 17.9423 5.936 18 6.1155 18Z" fill="#111827"/>
</g>
</svg>
