<svg width="25" height="24" viewBox="0 0 25 24" fill="none" xmlns="http://www.w3.org/2000/svg">
<mask id="mask0_2036_2822" style="mask-type:alpha" maskUnits="userSpaceOnUse" x="0" y="0" width="25" height="24">
<rect x="0.5" width="24" height="24" fill="#D9D9D9"/>
</mask>
<g mask="url(#mask0_2036_2822)">
<path d="M9.9615 13H18.6538L15.8962 9.34625L13.4423 12.423L11.8538 10.5385L9.9615 13ZM4.1155 19.7693C3.668 19.7693 3.28683 19.6118 2.972 19.297C2.65733 18.9823 2.5 18.6013 2.5 18.1538V7.077H3.5V18.1538C3.5 18.3333 3.55767 18.4807 3.673 18.5962C3.7885 18.7116 3.936 18.7693 4.1155 18.7693H19.5V19.7693H4.1155ZM7.1155 16.7693C6.668 16.7693 6.28683 16.6118 5.972 16.297C5.65733 15.9823 5.5 15.6013 5.5 15.1538V4.6155C5.5 4.168 5.65733 3.78683 5.972 3.472C6.28683 3.15733 6.668 3 7.1155 3H12.077L14.077 5H20.8845C21.332 5 21.7132 5.15733 22.028 5.472C22.3427 5.78683 22.5 6.168 22.5 6.6155V15.1538C22.5 15.6013 22.3427 15.9823 22.028 16.297C21.7132 16.6118 21.332 16.7693 20.8845 16.7693H7.1155ZM7.1155 15.7692H20.8845C21.064 15.7692 21.2115 15.7116 21.327 15.5963C21.4423 15.4808 21.5 15.3333 21.5 15.1538V6.6155C21.5 6.436 21.4423 6.2885 21.327 6.173C21.2115 6.05767 21.064 6 20.8845 6H13.675L11.675 4H7.1155C6.936 4 6.7885 4.05767 6.673 4.173C6.55767 4.2885 6.5 4.436 6.5 4.6155V15.1538C6.5 15.3333 6.55767 15.4808 6.673 15.5963C6.7885 15.7116 6.936 15.7692 7.1155 15.7692Z" fill="#111827"/>
</g>
</svg>
