<svg width="25" height="24" viewBox="0 0 25 24" fill="none" xmlns="http://www.w3.org/2000/svg">
<mask id="mask0_2036_2815" style="mask-type:alpha" maskUnits="userSpaceOnUse" x="0" y="0" width="25" height="24">
<rect x="0.5" width="24" height="24" fill="#D9D9D9"/>
</mask>
<g mask="url(#mask0_2036_2815)">
<path d="M8 8.73075H17V7.73075H8V8.73075ZM8 12.5H13.1538C13.3333 12.3052 13.5259 12.1234 13.7318 11.9548C13.9376 11.7863 14.1584 11.6347 14.3943 11.5H8V12.5ZM8 16.2693H11.0115C11.0448 16.0859 11.0881 15.9141 11.1413 15.7538C11.1946 15.5936 11.2494 15.4321 11.3058 15.2693H8V16.2693ZM6.1155 20C5.668 20 5.28683 19.8427 4.972 19.528C4.65733 19.2132 4.5 18.832 4.5 18.3845V5.6155C4.5 5.168 4.65733 4.78683 4.972 4.472C5.28683 4.15733 5.668 4 6.1155 4H18.8845C19.332 4 19.7132 4.15733 20.028 4.472C20.3427 4.78683 20.5 5.168 20.5 5.6155V10.5943C20.3372 10.5378 20.1724 10.4926 20.0058 10.4587C19.8391 10.4247 19.6705 10.3975 19.5 10.377V5.6155C19.5 5.4615 19.4359 5.32042 19.3078 5.19225C19.1796 5.06408 19.0385 5 18.8845 5H6.1155C5.9615 5 5.82042 5.06408 5.69225 5.19225C5.56408 5.32042 5.5 5.4615 5.5 5.6155V18.3845C5.5 18.5385 5.56408 18.6796 5.69225 18.8078C5.82042 18.9359 5.9615 19 6.1155 19H10.877C10.8975 19.1705 10.9248 19.3391 10.9588 19.5058C10.9926 19.6724 11.0378 19.8372 11.0943 20H6.1155ZM18.5 22.6923C17.4372 22.6923 16.4932 22.3708 15.6683 21.728C14.8433 21.085 14.2884 20.2783 14.0038 19.3078H14.9385C15.2065 20.0539 15.6574 20.6571 16.2913 21.1173C16.9253 21.5776 17.6615 21.8078 18.5 21.8078C19.5563 21.8078 20.4551 21.4373 21.1963 20.6963C21.9373 19.9551 22.3078 19.0563 22.3078 18C22.3078 16.9437 21.9373 16.0449 21.1963 15.3038C20.4551 14.5628 19.5563 14.1923 18.5 14.1923C17.8885 14.1923 17.3039 14.3407 16.7463 14.6375C16.1884 14.9343 15.7063 15.3244 15.3 15.8078H17.1923V16.6923H13.8078V13.3078H14.6923V15.1558C15.1679 14.6071 15.7378 14.1619 16.402 13.8203C17.066 13.4786 17.7653 13.3078 18.5 13.3078C19.7937 13.3078 20.8991 13.7664 21.8163 14.6838C22.7336 15.6009 23.1923 16.7063 23.1923 18C23.1923 19.2937 22.7336 20.3991 21.8163 21.3163C20.8991 22.2336 19.7937 22.6923 18.5 22.6923Z" fill="#111827"/>
</g>
</svg>
